<?xml version="1.0" standalone="no"?><!DOCTYPE svg PUBLIC "-//W3C//DTD SVG 1.1//EN" "http://www.w3.org/Graphics/SVG/1.1/DTD/svg11.dtd"><svg t="1592317419839" class="icon" viewBox="0 0 1024 1024" version="1.1" xmlns="http://www.w3.org/2000/svg" p-id="3891" xmlns:xlink="http://www.w3.org/1999/xlink" width="200" height="200"><defs><style type="text/css"></style></defs><path d="M512 543.28528595c-97.4406302 0-176.63151026-79.19088007-176.63151026-176.63151026 0-97.4406302 79.19088007-176.63151026 176.63151026-176.63151026s176.63151026 79.19088007 176.63151026 176.63151027c0 97.4406302-79.19088007 176.63151026-176.63151026 176.63151025z m0-304.70564962c-70.71778178 0-128.07413936 57.35635757-128.07413936 128.07413936 0 70.71778178 57.35635757 128.07413936 128.07413936 128.07413936s128.07413936-57.35635757 128.07413936-128.07413936c0-70.71778178-57.35635757-128.07413936-128.07413936-128.07413936z" fill="#2c2c2c" p-id="3892"></path><path d="M803.01833701 830.71885062c-13.36142421 0-24.44162965-7.1695447-24.44162965-20.53096891 0-146.97566628-119.60104108-266.57670737-266.57670736-266.57670736s-266.57670737 119.60104108-266.57670737 266.57670736c0 13.36142421-10.75431705 20.53096891-24.44162963 20.5309689s-24.44162965-7.1695447-24.44162966-20.5309689c0-173.6985147 141.43556357-315.13407827 315.13407827-315.13407826s315.13407827 141.43556357 315.13407825 315.13407826c0.32588839 13.36142421-10.42842865 20.53096891-23.78985286 20.5309689z" fill="#2c2c2c" p-id="3893"></path><path d="M808.55843973 831.044739H215.11567187c-10.10254026 0-18.57563853-8.47309828-18.57563853-18.57563852v-4.88832593c0-10.10254026 8.47309828-18.57563853 18.57563852-18.57563854h593.11687947c10.10254026 0 18.57563853 8.47309828 18.57563853 18.57563854v4.88832593c0.32588839 10.10254026-8.14720987 18.57563853-18.24975014 18.57563853z" fill="#2c2c2c" p-id="3894"></path></svg>